<svg width="108" height="25" viewBox="0 0 108 25" fill="none" xmlns="http://www.w3.org/2000/svg">
  <g clip-path="url(#clip0_10207_862)">
    <path d="M10.8423 0.413821C17.4194 -0.199866 23.2471 4.63817 23.854 11.2158C24.4609 17.7937 19.617 23.6161 13.0387 24.2163C6.46996 24.8159 0.657415 19.9804 0.0513343 13.4121C-0.554682 6.84402 4.27479 1.02655 10.8423 0.413821ZM13.2272 22.9514C19.0988 22.2463 23.286 16.9129 22.5775 11.042C21.869 5.17087 16.5332 0.986986 10.6625 1.69924C4.79707 2.41078 0.617785 7.74074 1.32562 13.6064C2.03353 19.4729 7.3608 23.6551 13.2272 22.9514Z" fill="#080C09" />
    <path d="M16.6314 6.0946L18.0072 6.08521C18.0339 10.0559 18.0358 14.0268 18.0131 17.9974L16.5905 18.0153L16.5884 10.5547L16.5819 8.5117C15.7873 10.0197 14.8852 11.4694 14.0257 12.9408C13.4809 13.8734 12.9749 14.9434 12.3008 15.782C12.14 15.8408 11.9655 15.8453 11.798 15.8069C11.7432 15.7941 11.6285 15.7513 11.5869 15.7181C11.2233 15.4279 7.80395 9.42114 7.25789 8.51023C7.39807 9.5904 7.30999 10.769 7.30941 11.8594L7.30526 17.9859L5.85059 17.991C5.89565 14.0268 5.82451 10.0597 5.86254 6.09454L7.44658 6.10278C8.15097 7.36218 8.90656 8.59524 9.63702 9.83981C10.4133 11.1624 11.1691 12.501 11.9938 13.7941C12.8328 12.262 13.771 10.777 14.6729 9.28033C15.3117 8.22029 15.9156 7.10395 16.6314 6.0946Z" fill="#080C09" />
    <path d="M89.4704 8.92416C89.751 8.90531 90.0393 8.89789 90.3205 8.90288C91.3694 8.92161 92.4407 9.48243 93.1585 10.2259C94.0534 11.1524 94.4688 12.4445 94.4388 13.7191C94.4088 15.016 93.9223 16.249 92.968 17.1387C92.1217 17.9268 91.0377 18.3487 89.8782 18.3052C88.5506 18.2554 87.6704 17.6961 86.78 16.7456C86.7455 17.2896 86.7557 17.8399 86.7506 18.3851C86.7564 19.4679 86.7551 20.5507 86.7461 21.6341C86.2412 21.684 85.7324 21.6795 85.2281 21.6201C85.3105 19.9435 85.2377 18.2266 85.2383 16.5456C85.2383 14.045 85.2779 11.5378 85.2217 9.03813L86.7238 9.03225C86.6944 9.59008 86.7014 10.1536 86.6931 10.7124C87.5068 9.69682 88.1856 9.2072 89.4704 8.92416ZM90.1211 16.9636C91.0549 16.7884 91.7785 16.4075 92.3263 15.6015C92.8626 14.7993 93.055 13.8156 92.86 12.8708C92.6925 12.0289 92.194 11.2332 91.4608 10.7731C90.8836 10.4109 90.2591 10.3114 89.5925 10.3303C88.6669 10.5052 87.9165 10.8348 87.3617 11.6417C86.8388 12.4017 86.6138 13.4838 86.7903 14.3876C86.9577 15.2557 87.4723 16.0176 88.2156 16.4957C88.8082 16.8683 89.4339 16.9757 90.1211 16.9636Z" fill="#080C09" />
    <path d="M61.4415 5.15649C61.6863 5.40808 61.7624 6.07195 61.9081 6.42746C60.3318 7.08903 58.0467 6.95301 56.7792 8.16376C56.0211 8.88809 55.8402 9.88957 55.8243 10.8877C56.5024 10.0501 57.2458 9.37132 58.358 9.18544C59.4817 8.99752 60.6725 9.21491 61.5942 9.90082C62.5843 10.6379 63.1353 11.7063 63.3009 12.9166C63.4907 14.3075 63.1443 15.6191 62.291 16.73C61.6729 17.4159 60.9538 17.9227 60.048 18.1445C58.9013 18.4258 57.5923 18.28 56.5817 17.653C55.4293 16.9371 54.7658 15.7559 54.4781 14.4564C54.0486 12.5145 54.133 9.61242 55.2522 7.88878C56.2391 6.36821 57.7297 6.06715 59.3858 5.67328C60.0736 5.50971 60.7518 5.30843 61.4415 5.15649ZM58.8208 16.9716C59.7968 16.8272 60.523 16.5932 61.1295 15.7546C61.7246 14.9326 61.917 13.8945 61.7323 12.9064C61.5834 12.1089 61.1634 11.3795 60.4789 10.9283C60.0595 10.651 59.5731 10.4922 59.0707 10.4684C58.1209 10.5746 57.3398 10.7713 56.7076 11.5547C56.1145 12.2902 55.8607 13.2835 55.9917 14.2154C56.1113 15.0655 56.576 15.8837 57.274 16.3906C57.7463 16.7332 58.2532 16.8834 58.8208 16.9716Z" fill="#080C09" />
    <path d="M40.0841 5.76154C40.639 5.70586 41.2163 5.73252 41.7744 5.72862C41.6991 9.81426 41.789 13.9119 41.7655 17.9995L40.2942 17.9848L40.2965 10.7572C40.2924 9.92912 40.2752 9.09932 40.3259 8.2724C38.9699 10.7768 37.7465 13.3909 36.2614 15.8192L35.3053 15.8141C33.8425 13.4158 32.6251 10.8316 31.2724 8.3672C31.3253 9.49735 31.2895 10.6449 31.2903 11.7768L31.2935 18.0001C30.803 17.9873 30.3144 18.0193 29.8233 17.9963L29.824 10.5514C29.825 8.9511 29.7937 7.34072 29.8814 5.74255L31.5184 5.74345C31.9837 6.54128 32.3792 7.3962 32.8019 8.21807C33.7827 10.1246 34.7535 12.0518 35.8116 13.9163C37.3666 11.2797 38.5976 8.43962 40.0841 5.76154Z" fill="#080C09" />
    <path d="M47.6516 8.92695C47.8761 8.91494 48.1008 8.90644 48.3257 8.90145C49.5036 8.88215 50.6774 9.20353 51.5266 10.0571C52.6626 11.199 52.7757 12.638 52.7759 14.1586C50.3239 14.1899 47.8685 14.1567 45.416 14.1676C45.4916 14.5722 45.5677 14.9595 45.7603 15.329C46.1436 16.0679 46.8088 16.6208 47.6053 16.8624C48.5587 17.1513 49.5176 16.9819 50.3752 16.5089C50.6629 16.3133 50.926 16.0845 51.1938 15.8633C51.5787 16.0832 51.9682 16.2667 52.375 16.4424C51.7699 17.2587 50.9899 17.8538 50.0026 18.1241C48.7386 18.4699 47.1981 18.3344 46.0595 17.6646C45.0611 17.0759 44.3448 16.1069 44.0752 14.98C43.7388 13.6249 43.9267 12.1427 44.6619 10.9508C45.3707 9.80194 46.3652 9.23421 47.6516 8.92695ZM45.4317 13.0132C46.6462 13.0036 47.8608 12.9997 49.0754 13.0029L51.3456 13.0042C51.1243 12.0725 50.9024 11.2089 50.0354 10.6634C49.4011 10.2643 48.6319 10.2035 47.9018 10.2644C47.1134 10.4464 46.4489 10.8053 45.9989 11.5001C45.6943 11.9707 45.5592 12.4763 45.4317 13.0132Z" fill="#080C09" />
    <path d="M78.1542 8.92448C78.3747 8.91349 78.5946 8.90614 78.8151 8.90243C79.99 8.88971 81.1642 9.23826 82.0028 10.0955C83.106 11.2238 83.2077 12.6638 83.2025 14.1531C80.7608 14.1901 78.3134 14.1607 75.8704 14.1665C75.903 14.612 75.981 14.9955 76.1893 15.3963C76.5741 16.1384 77.2127 16.6293 78.0098 16.8626C79.0759 17.1758 80.0462 16.9444 80.9884 16.4216C81.2185 16.263 81.423 16.0694 81.632 15.884C82.0194 16.0924 82.4119 16.2611 82.8197 16.4235C82.1811 17.2627 81.3866 17.8712 80.3549 18.1327C79.0721 18.458 77.5994 18.3334 76.4546 17.6424C75.4383 17.0288 74.7416 16.0176 74.4744 14.8658C74.1695 13.5503 74.3824 12.0373 75.1174 10.8969C75.8525 9.75671 76.8579 9.2049 78.1542 8.92448ZM75.857 13.0102C77.0196 13.007 78.1836 12.991 79.3463 13.0032L81.8104 13.0019C81.5547 12.0439 81.2869 11.1106 80.3601 10.5836C79.7861 10.2569 79.0868 10.2013 78.4387 10.2668C77.6697 10.394 77.0196 10.6833 76.5422 11.3262C76.1638 11.8353 76.0027 12.4042 75.857 13.0102Z" fill="#080C09" />
    <path d="M103.514 9.05342C105.001 8.98368 106.51 9.03424 108 9.03897C107.924 12.017 107.992 15.0152 107.991 17.9957L106.458 17.9791L106.457 14.9193C105.725 14.9148 104.761 14.7716 104.063 14.9378C103.845 14.9896 103.806 15.0995 103.684 15.2689C103.167 16.1861 102.592 17.0714 102.073 17.9893C101.494 18.0021 100.914 18.004 100.335 17.9938C100.902 16.9295 101.672 15.5751 102.422 14.6534C102.332 14.6099 102.244 14.5639 102.157 14.5166C101.503 14.1554 101.002 13.5744 100.811 12.8457C100.611 12.0861 100.72 11.2191 101.126 10.5447C101.674 9.6347 102.532 9.28487 103.514 9.05342ZM105.085 13.6351C105.537 13.6313 105.999 13.6454 106.45 13.6128C106.444 12.5536 106.447 11.4945 106.458 10.4353C105.56 10.4321 104.649 10.408 103.751 10.4572C103.185 10.6346 102.743 10.826 102.437 11.3718C102.235 11.7345 102.18 12.2132 102.317 12.6073C102.449 12.9889 102.756 13.2567 103.116 13.4197C103.725 13.6946 104.433 13.6409 105.085 13.6351Z" fill="#080C09" />
    <path d="M66.4129 9.13533C68.3535 9.06533 70.3107 9.11072 72.2532 9.10714L72.2442 17.9943C71.7603 17.9872 71.2746 17.9668 70.7945 18.0326L70.7875 10.5045L69.9642 10.5377C69.2292 10.5015 68.4781 10.5499 67.7418 10.5671C67.7213 12.3585 67.7143 16.0722 66.4595 17.3979C65.8338 18.0588 65.1268 18.1266 64.2722 18.1336C64.2658 17.6663 64.2409 17.2049 64.207 16.7389C64.4301 16.7184 64.6666 16.7031 64.8839 16.6481C66.2345 16.3074 66.2582 11.8445 66.2921 10.7193C66.3055 10.2808 66.2083 9.49231 66.4129 9.13533Z" fill="#080C09" />
    <path d="M97.8876 9.07005L98.0864 9.05835C98.1101 9.09063 98.1439 9.11754 98.1586 9.15519C98.2251 9.33001 98.1567 17.0934 98.1574 17.9908L96.856 17.9998L96.7601 17.9806C96.5517 17.6041 96.7607 10.2061 96.6955 9.08775C97.0931 9.09268 97.4907 9.07931 97.8876 9.07005Z" fill="#080C09" />
    <path d="M96.6682 5.71834L98.1652 5.71387C98.1492 6.2451 98.1613 6.77678 98.169 7.30808L96.6279 7.3197C96.6503 6.78617 96.6637 6.25232 96.6682 5.71834Z" fill="#080C09" />
  </g>
  <defs>
    <clipPath id="clip0_10207_862">
      <rect width="108" height="23.9052" fill="white" transform="translate(0 0.361328)" />
    </clipPath>
  </defs>
</svg>