<svg width="81" height="19" viewBox="0 0 81 19" fill="none" xmlns="http://www.w3.org/2000/svg">
  <g clip-path="url(#clip0_8205_61350)">
    <path d="M8.13175 0.810366C13.0645 0.3501 17.4353 3.97863 17.8905 8.91187C18.3457 13.8453 14.7128 18.2121 9.77905 18.6622C4.85247 19.1119 0.493061 15.4853 0.0385007 10.5591C-0.416012 5.63301 3.20609 1.26991 8.13175 0.810366ZM9.92042 17.7135C14.3241 17.1847 17.4645 13.1847 16.9331 8.78152C16.4018 4.37815 12.3999 1.24024 7.9969 1.77443C3.5978 2.30809 0.463339 6.30555 0.994219 10.7048C1.52515 15.1047 5.5206 18.2413 9.92042 17.7135Z" fill="#080C09" />
    <path d="M12.4733 5.07101L13.5051 5.06396C13.5252 8.04195 13.5266 11.0201 13.5096 13.9981L12.4426 14.0115L12.4411 8.41607L12.4362 6.88384C11.8402 8.01482 11.1636 9.10208 10.519 10.2056C10.1104 10.9051 9.73096 11.7076 9.22535 12.3365C9.10473 12.3807 8.9739 12.384 8.84826 12.3552C8.80717 12.3457 8.72117 12.3135 8.68996 12.2886C8.41723 12.071 5.85272 7.56592 5.44317 6.88273C5.54831 7.69286 5.48225 8.57681 5.48181 9.39461L5.4787 13.9895L4.3877 13.9933C4.42149 11.0201 4.36814 8.04483 4.39666 5.07096L5.58469 5.07715C6.11298 6.0217 6.67967 6.94649 7.22752 7.87992C7.8097 8.87188 8.37658 9.87583 8.99509 10.8456C9.62434 9.69653 10.328 8.5828 11.0044 7.46031C11.4835 6.66528 11.9365 5.82802 12.4733 5.07101Z" fill="#080C09" />
    <path d="M67.1025 7.19288C67.313 7.17874 67.5292 7.17318 67.7401 7.17691C68.5268 7.19096 69.3303 7.61158 69.8686 8.16921C70.5398 8.86404 70.8514 9.83314 70.8289 10.789C70.8063 11.7617 70.4415 12.6865 69.7258 13.3538C69.0911 13.9449 68.278 14.2613 67.4084 14.2287C66.4127 14.1913 65.7526 13.7718 65.0848 13.059C65.0589 13.4669 65.0666 13.8797 65.0627 14.2886C65.067 15.1007 65.0661 15.9128 65.0594 16.7254C64.6806 16.7628 64.299 16.7594 63.9208 16.7148C63.9827 15.4574 63.928 14.1697 63.9285 12.9089C63.9285 11.0335 63.9582 9.15312 63.916 7.27836L65.0426 7.27395C65.0205 7.69231 65.0258 8.11494 65.0196 8.53403C65.6298 7.77237 66.139 7.40515 67.1025 7.19288ZM67.5906 13.2224C68.291 13.0911 68.8336 12.8054 69.2445 12.2009C69.6467 11.5992 69.791 10.8614 69.6448 10.1529C69.5192 9.52143 69.1452 8.92464 68.5954 8.57957C68.1625 8.30795 67.6941 8.2333 67.1941 8.24745C66.4999 8.37866 65.9371 8.62588 65.521 9.23102C65.1289 9.80102 64.9601 10.6126 65.0924 11.2905C65.218 11.9415 65.604 12.5129 66.1615 12.8715C66.6059 13.151 67.0752 13.2316 67.5906 13.2224Z" fill="#080C09" />
    <path d="M46.0811 4.36768C46.2647 4.55636 46.3218 5.05426 46.4311 5.3209C45.2489 5.81707 43.5351 5.71506 42.5844 6.62313C42.0159 7.16637 41.8802 7.91748 41.8682 8.6661C42.3768 8.03786 42.9344 7.52879 43.7685 7.38939C44.6113 7.24845 45.5044 7.41149 46.1957 7.92592C46.9383 8.47871 47.3515 9.28006 47.4757 10.1877C47.618 11.2309 47.3582 12.2146 46.7182 13.0478C46.2546 13.5622 45.7153 13.9424 45.036 14.1087C44.176 14.3196 43.1942 14.2103 42.4363 13.7401C41.5719 13.2031 41.0743 12.3172 40.8586 11.3426C40.5364 9.88621 40.5997 7.70962 41.4391 6.41689C42.1793 5.27646 43.2973 5.05067 44.5394 4.75527C45.0552 4.63259 45.5638 4.48163 46.0811 4.36768ZM44.1156 13.229C44.8476 13.1207 45.3922 12.9452 45.8472 12.3162C46.2935 11.6998 46.4378 10.9212 46.2992 10.1801C46.1875 9.58198 45.8726 9.03495 45.3591 8.6965C45.0447 8.48859 44.6798 8.36946 44.303 8.35162C43.5907 8.43125 43.0048 8.57881 42.5307 9.1663C42.0858 9.71794 41.8955 10.4629 41.9938 11.1619C42.0834 11.7995 42.432 12.4131 42.9555 12.7932C43.3097 13.0502 43.6899 13.1629 44.1156 13.229Z" fill="#080C09" />
    <path d="M30.0628 4.8214C30.479 4.77964 30.912 4.79963 31.3306 4.79671C31.2741 7.86094 31.3415 10.9341 31.3239 13.9999L30.2204 13.9888L30.2221 8.56814C30.2191 7.94709 30.2061 7.32474 30.2442 6.70455C29.2272 8.58281 28.3097 10.5434 27.1958 12.3646L26.4788 12.3608C25.3816 10.5621 24.4686 8.62394 23.454 6.77564C23.4937 7.62326 23.4669 8.48396 23.4675 9.33287L23.4699 14.0003C23.102 13.9907 22.7356 14.0147 22.3672 13.9975L22.3677 8.41382C22.3685 7.21357 22.345 6.00578 22.4108 4.80716L23.6385 4.80783C23.9875 5.40621 24.2841 6.0474 24.6012 6.6638C25.3368 8.09368 26.0649 9.5391 26.8584 10.9375C28.0247 8.95999 28.9479 6.82996 30.0628 4.8214Z" fill="#080C09" />
    <path d="M35.7387 7.19503C35.9071 7.18602 36.0756 7.17964 36.2442 7.1759C37.1277 7.16143 38.008 7.40247 38.6449 8.04265C39.497 8.89904 39.5818 9.97829 39.5819 11.1188C37.7429 11.1423 35.9014 11.1173 34.062 11.1255C34.1187 11.4289 34.1758 11.7194 34.3202 11.9965C34.6077 12.5507 35.1066 12.9654 35.704 13.1466C36.419 13.3633 37.1382 13.2362 37.7814 12.8815C37.9972 12.7348 38.1945 12.5632 38.3953 12.3973C38.684 12.5622 38.9762 12.6998 39.2812 12.8316C38.8274 13.4438 38.2424 13.8901 37.502 14.0929C36.554 14.3523 35.3985 14.2506 34.5446 13.7482C33.7958 13.3067 33.2586 12.58 33.0564 11.7348C32.8041 10.7185 32.945 9.60686 33.4965 8.71294C34.028 7.85127 34.7739 7.42548 35.7387 7.19503ZM34.0738 10.2597C34.9847 10.2525 35.8956 10.2496 36.8066 10.252L38.5092 10.253C38.3432 9.55422 38.1768 8.90646 37.5266 8.4974C37.0508 8.19807 36.4739 8.15248 35.9264 8.19811C35.3351 8.33465 34.8366 8.60378 34.4992 9.12493C34.2707 9.47781 34.1694 9.85701 34.0738 10.2597Z" fill="#080C09" />
    <path d="M58.6157 7.19306C58.7811 7.18481 58.946 7.1793 59.1114 7.17652C59.9925 7.16698 60.8731 7.42839 61.5021 8.07131C62.3295 8.91758 62.4057 9.99751 62.4019 11.1145C60.5706 11.1423 58.735 11.1202 56.9028 11.1246C56.9272 11.4587 56.9857 11.7463 57.142 12.0469C57.4306 12.6035 57.9095 12.9717 58.5073 13.1466C59.3069 13.3815 60.0347 13.208 60.7413 12.8159C60.9139 12.697 61.0673 12.5517 61.224 12.4127C61.5145 12.569 61.8089 12.6955 62.1147 12.8173C61.6358 13.4467 61.0399 13.9031 60.2662 14.0992C59.3041 14.3432 58.1995 14.2497 57.341 13.7315C56.5787 13.2713 56.0562 12.5129 55.8558 11.649C55.6271 10.6624 55.7868 9.5277 56.3381 8.67237C56.8894 7.81723 57.6435 7.40337 58.6157 7.19306ZM56.8927 10.2573C57.7647 10.2549 58.6377 10.243 59.5097 10.2521L61.3578 10.2511C61.166 9.53264 60.9652 8.83263 60.27 8.43742C59.8395 8.1924 59.3151 8.15065 58.829 8.19978C58.2523 8.29523 57.7647 8.51221 57.4066 8.99433C57.1228 9.37617 57.002 9.80287 56.8927 10.2573Z" fill="#080C09" />
    <path d="M77.635 7.29013C78.7505 7.23782 79.8824 7.27574 80.9999 7.27929C80.9428 9.51283 80.9936 11.7614 80.9927 13.9968L79.8436 13.9844L79.8426 11.6895C79.2937 11.6862 78.5708 11.5788 78.0473 11.7034C77.8838 11.7422 77.8546 11.8247 77.763 11.9517C77.3752 12.6397 76.9437 13.3036 76.5544 13.992C76.1201 14.0016 75.6853 14.0031 75.251 13.9954C75.6762 13.1972 76.2534 12.1814 76.8162 11.4901C76.7491 11.4575 76.6829 11.423 76.6177 11.3875C76.1268 11.1166 75.7515 10.6809 75.6076 10.1344C75.4581 9.56465 75.5396 8.91441 75.8445 8.40855C76.2553 7.72609 76.8987 7.46371 77.635 7.29013ZM78.8133 10.7264C79.1528 10.7235 79.4989 10.7341 79.8373 10.7096C79.833 9.91528 79.8349 9.12093 79.8436 8.32657C79.1695 8.32413 78.4864 8.30605 77.8133 8.34297C77.3886 8.476 77.0569 8.61953 76.8277 9.02888C76.6757 9.30094 76.635 9.65996 76.7376 9.95555C76.8368 10.2417 77.0664 10.4426 77.3368 10.5649C77.7932 10.771 78.3244 10.7307 78.8133 10.7264Z" fill="#080C09" />
    <path d="M49.8097 7.3518C51.2651 7.29931 52.733 7.33334 54.1899 7.33066L54.1832 13.996C53.8203 13.9907 53.4559 13.9754 53.0959 14.0248L53.0906 8.37871L52.4732 8.40359C51.9219 8.37641 51.3586 8.41269 50.8063 8.42564C50.791 9.76918 50.7857 12.5545 49.8447 13.5487C49.3753 14.0444 48.8451 14.0952 48.2042 14.1005C48.1994 13.7501 48.1807 13.4039 48.1553 13.0545C48.3226 13.0391 48.5 13.0276 48.663 12.9864C49.6759 12.7309 49.6936 9.38371 49.7191 8.53978C49.7291 8.21087 49.6563 7.61954 49.8097 7.3518Z" fill="#080C09" />
    <path d="M73.416 7.30223L73.5651 7.29346C73.5828 7.31767 73.6082 7.33785 73.6192 7.36609C73.6691 7.4972 73.6178 13.3198 73.6183 13.9928L72.6422 13.9995L72.5703 13.9852C72.414 13.7028 72.5708 8.15426 72.5219 7.31551C72.8201 7.3192 73.1183 7.30918 73.416 7.30223Z" fill="#080C09" />
    <path d="M72.5009 4.78851L73.6236 4.78516C73.6117 5.18358 73.6208 5.58234 73.6265 5.98081L72.4707 5.98953C72.4875 5.58939 72.4975 5.189 72.5009 4.78851Z" fill="#080C09" />
  </g>
  <defs>
    <clipPath id="clip0_8205_61350">
      <rect width="80.9997" height="17.9289" fill="white" transform="translate(0 0.770996)" />
    </clipPath>
  </defs>
</svg>
